<?xml version="1.0" encoding="UTF-8" standalone="no"?>
<!-- Created with Inkscape (http://www.inkscape.org/) -->

<svg
   width="512"
   height="512"
   viewBox="0 0 512 512"
   version="1.1"
   id="svg5"
   sodipodi:docname="foreground.svg"
   inkscape:version="1.2.2 (1:1.2.2+202212051552+b0a8486541)"
   inkscape:export-filename="android-foreground.png"
   inkscape:export-xdpi="96"
   inkscape:export-ydpi="96"
   xmlns:inkscape="http://www.inkscape.org/namespaces/inkscape"
   xmlns:sodipodi="http://sodipodi.sourceforge.net/DTD/sodipodi-0.dtd"
   xmlns="http://www.w3.org/2000/svg"
   xmlns:svg="http://www.w3.org/2000/svg">
  <sodipodi:namedview
     id="namedview7"
     pagecolor="#ffffff"
     bordercolor="#999999"
     borderopacity="1"
     inkscape:pageshadow="0"
     inkscape:pageopacity="0"
     inkscape:pagecheckerboard="0"
     inkscape:document-units="px"
     showgrid="false"
     inkscape:snap-grids="true"
     inkscape:snap-intersection-paths="false"
     inkscape:snap-smooth-nodes="false"
     inkscape:snap-page="true"
     inkscape:snap-object-midpoints="false"
     inkscape:snap-others="false"
     inkscape:object-nodes="false"
     inkscape:zoom="1.4042969"
     inkscape:cx="163.78303"
     inkscape:cy="267.03755"
     inkscape:window-width="1920"
     inkscape:window-height="1051"
     inkscape:window-x="0"
     inkscape:window-y="0"
     inkscape:window-maximized="1"
     inkscape:current-layer="layer1"
     inkscape:showpageshadow="2"
     inkscape:deskcolor="#d1d1d1" />
  <defs
     id="defs2">
    <inkscape:path-effect
       effect="bspline"
       id="path-effect3578"
       is_visible="true"
       lpeversion="1"
       weight="33.333333"
       steps="2"
       helper_size="0"
       apply_no_weight="true"
       apply_with_weight="true"
       only_selected="false" />
  </defs>
  <g
     inkscape:label="Ebene 1"
     inkscape:groupmode="layer"
     id="layer1">
    <path
       id="path5038"
       style="stroke-width:8.74998;fill:#6e6f6e;fill-opacity:1"
       d="M 200 25 C 175.5 25 152.60417 29.447936 131.3125 38.34375 C 110.02083 47.239583 91.5 59.562501 75.75 75.3125 C 59.999999 91.062513 47.604167 109.51042 38.5625 130.65625 C 29.520834 151.80208 25 174.625 25 199.125 C 25 223.625 29.520834 246.59374 38.5625 268.03125 C 47.604167 289.46875 59.999999 308.0625 75.75 323.8125 C 91.5 339.5625 110.02083 352.03125 131.3125 361.21875 C 152.60417 370.40625 175.5 375 200 375 C 204.40086 375 208.73196 374.7984 213.0293 374.50195 A 148.39968 127.82193 29.603704 0 1 207.14258 341.69336 C 204.85946 344.42647 202.48128 347.07283 200 349.625 C 189.79167 338.83333 181.26042 326.4375 174.40625 312.4375 C 167.55208 298.4375 162.08333 282.6875 158 265.1875 L 230.30664 265.1875 A 148.39968 127.82193 29.603704 0 1 235.05859 258.83008 A 148.39968 127.82193 29.603704 0 1 274.23828 230.82617 C 274.68306 226.07094 275.19512 220.83848 275.46875 217.28125 C 275.90625 211.59375 276.125 205.54167 276.125 199.125 C 276.125 194.45833 275.97917 189.42708 275.6875 184.03125 C 275.39583 178.63542 274.8125 170.83333 273.9375 160.625 L 343.5 160.625 C 345.54167 167.625 346.92708 173.89583 347.65625 179.4375 C 348.38542 184.97917 348.75 191.54167 348.75 199.125 C 348.75 206.67481 348.3868 213.42693 347.66406 219.38672 A 148.39968 127.82193 29.603704 0 1 373.34375 223.95508 C 374.42284 215.85669 375 207.58889 375 199.125 C 375 174.625 370.47917 151.80208 361.4375 130.65625 C 352.39583 109.51042 340 91.062513 324.25 75.3125 C 308.5 59.562501 289.97917 47.239583 268.6875 38.34375 C 247.39583 29.447936 224.5 25 200 25 z M 200 51.25 C 210.20833 62.333333 219.10417 75.093751 226.6875 89.53125 C 234.27083 103.96876 239.66667 118.91667 242.875 134.375 L 158 134.375 C 163.83333 112.5 169.95833 95.145847 176.375 82.3125 C 182.79167 69.479167 190.66667 59.125 200 51.25 z M 237.1875 55.625 C 259.0625 61.166667 278.38542 70.645834 295.15625 84.0625 C 311.92708 97.47918 325.125 114.25 334.75 134.375 L 269.125 134.375 C 265.33333 117.75 260.88542 103.16668 255.78125 90.625 C 250.67708 78.083336 244.47917 66.416669 237.1875 55.625 z M 162.375 56.0625 C 154.79167 67.729169 148.52083 79.760419 143.5625 92.15625 C 138.60417 104.5521 134.52083 118.625 131.3125 134.375 L 65.25 134.375 C 75.458334 113.95833 88.729167 97.187513 105.0625 84.0625 C 121.39583 70.937501 140.5 61.604167 162.375 56.0625 z M 56.5 160.625 L 126.5 160.625 C 125.625 167.625 125.04167 173.96875 124.75 179.65625 C 124.45833 185.34375 124.3125 191.83333 124.3125 199.125 C 124.3125 205.25 124.38542 211.44792 124.53125 217.71875 C 124.67708 223.98958 125.1875 231.0625 126.0625 238.9375 L 56.5 238.9375 C 54.458333 231.9375 53.072917 225.44792 52.34375 219.46875 C 51.614583 213.48958 51.25 206.70833 51.25 199.125 C 51.25 191.54167 51.614583 184.97917 52.34375 179.4375 C 53.072917 173.89583 54.458333 167.625 56.5 160.625 z M 153.1875 160.625 L 247.25 160.625 C 248.41667 169.66667 249.14583 176.88542 249.4375 182.28125 C 249.72917 187.67708 249.875 193.29167 249.875 199.125 C 249.875 205.25 249.72917 211.15625 249.4375 216.84375 C 249.14583 222.53125 248.41667 229.89583 247.25 238.9375 L 153.1875 238.9375 C 152.02083 229.89583 151.29167 222.53125 151 216.84375 C 150.70833 211.15625 150.5625 205.25 150.5625 199.125 C 150.5625 193.29167 150.70833 187.67708 151 182.28125 C 151.29167 176.88542 152.02083 169.66667 153.1875 160.625 z M 65.25 265.1875 L 130.875 265.1875 C 134.375 281.22917 138.75 295.66667 144 308.5 C 149.25 321.33333 155.52083 333.29167 162.8125 344.375 C 138.02083 335.91667 118.33333 325.78125 103.75 313.96875 C 89.166667 302.15625 76.333334 285.89583 65.25 265.1875 z " />
    <path
       d="m 360.02036,487 51.18778,-150 h 23.19005 L 487,487 H 462.39593 L 450.8009,447.625 H 396.50226 L 383.21041,487 Z m 42.70362,-61.25 h 40.15837 l -19.79638,-60.625 h -0.56561 z m -131.78733,23.75 -15.5543,-17.1875 57.69231,-63.75 Q 302.32805,354.8125 293.98529,340.90625 285.64253,327 279.42081,312 h 24.60408 q 4.80769,10.3125 10.6052,19.53125 5.79751,9.21875 13.15045,18.90625 Q 340.50679,335.75 348.99095,319.96875 357.47511,304.1875 363.41403,287 H 237 v -25 h 79.18552 v -25 h 22.62443 v 25 h 79.18553 v 25 h -31.95702 q -6.22172,21.5625 -16.54412,42.34375 -10.32239,20.78125 -25.31108,39.53125 l 27.71493,30.9375 -8.48416,25.3125 L 327.49774,387 Z"
       id="path5047"
       style="fill:#00b73d;fill-opacity:1;stroke-width:5.94565" />
  </g>
</svg>
