<?xml version="1.0" encoding="UTF-8" standalone="no"?>
<!-- Created with Inkscape (http://www.inkscape.org/) -->

<svg
   width="512"
   height="512"
   viewBox="0 0 135.46667 135.46667"
   version="1.1"
   id="svg5"
   xml:space="preserve"
   inkscape:version="1.2.2 (1:1.2.2+202212051552+b0a8486541)"
   sodipodi:docname="rounded_icon.svg"
   inkscape:export-filename="rounded_icon.png"
   inkscape:export-xdpi="96"
   inkscape:export-ydpi="96"
   xmlns:inkscape="http://www.inkscape.org/namespaces/inkscape"
   xmlns:sodipodi="http://sodipodi.sourceforge.net/DTD/sodipodi-0.dtd"
   xmlns="http://www.w3.org/2000/svg"
   xmlns:svg="http://www.w3.org/2000/svg"><sodipodi:namedview
     id="namedview7"
     pagecolor="#ffffff"
     bordercolor="#000000"
     borderopacity="0.25"
     inkscape:showpageshadow="2"
     inkscape:pageopacity="0.0"
     inkscape:pagecheckerboard="0"
     inkscape:deskcolor="#d1d1d1"
     inkscape:document-units="mm"
     showgrid="false"
     inkscape:zoom="1.3166177"
     inkscape:cx="150.00558"
     inkscape:cy="261.27554"
     inkscape:window-width="1920"
     inkscape:window-height="1006"
     inkscape:window-x="0"
     inkscape:window-y="0"
     inkscape:window-maximized="1"
     inkscape:current-layer="layer1" /><defs
     id="defs2"><inkscape:path-effect
       effect="bspline"
       id="path-effect3578"
       is_visible="true"
       lpeversion="1"
       weight="33.333333"
       steps="2"
       helper_size="0"
       apply_no_weight="true"
       apply_with_weight="true"
       only_selected="false" /><filter
       style="color-interpolation-filters:sRGB;"
       inkscape:label="Drop Shadow"
       id="filter2081"
       x="-0.053149609"
       y="-0.053149609"
       width="1.1284449"
       height="1.1287177"><feFlood
         flood-opacity="0.498039"
         flood-color="rgb(0,0,0)"
         result="flood"
         id="feFlood2071" /><feComposite
         in="flood"
         in2="SourceGraphic"
         operator="in"
         result="composite1"
         id="feComposite2073" /><feGaussianBlur
         in="composite1"
         stdDeviation="3"
         result="blur"
         id="feGaussianBlur2075" /><feOffset
         dx="3"
         dy="3.03696"
         result="offset"
         id="feOffset2077" /><feComposite
         in="SourceGraphic"
         in2="offset"
         operator="over"
         result="composite2"
         id="feComposite2079" /></filter></defs><g
     inkscape:label="Ebene 1"
     inkscape:groupmode="layer"
     id="layer1"><rect
       style="fill:#e5e5e5;fill-opacity:1;stroke-width:0.132492;stroke-dasharray:none;filter:url(#filter2081)"
       id="rect1514"
       width="135.46666"
       height="135.46666"
       x="0"
       y="0"
       inkscape:label="backgroundCircle"
       ry="67.73333"
       rx="0"
       transform="matrix(0.88617534,0,0,0.88617534,6.3804626,6.3804626)" /><g
       inkscape:label="foreground"
       id="layer1-2"
       transform="matrix(0.18039773,0,0,0.18039773,17.505712,18.197715)"><path
         id="path5038"
         style="fill:#6e6f6e;fill-opacity:1;stroke-width:8.74998"
         d="M 200,25 C 175.5,25 152.60417,29.447936 131.3125,38.34375 110.02083,47.239583 91.5,59.562501 75.75,75.3125 59.999999,91.062513 47.604167,109.51042 38.5625,130.65625 29.520834,151.80208 25,174.625 25,199.125 c 0,24.5 4.520834,47.46874 13.5625,68.90625 9.041667,21.4375 21.437499,40.03125 37.1875,55.78125 15.75,15.75 34.27083,28.21875 55.5625,37.40625 C 152.60417,370.40625 175.5,375 200,375 c 4.40086,0 8.73196,-0.2016 13.0293,-0.49805 a 148.39968,127.82193 29.603704 0 1 -5.88672,-32.80859 c -2.28312,2.73311 -4.6613,5.37947 -7.14258,7.93164 -10.20833,-10.79167 -18.73958,-23.1875 -25.59375,-37.1875 -6.85417,-14 -12.32292,-29.75 -16.40625,-47.25 h 72.30664 a 148.39968,127.82193 29.603704 0 1 4.75195,-6.35742 148.39968,127.82193 29.603704 0 1 39.17969,-28.00391 c 0.44478,-4.75523 0.95684,-9.98769 1.23047,-13.54492 0.4375,-5.6875 0.65625,-11.73958 0.65625,-18.15625 0,-4.66667 -0.14583,-9.69792 -0.4375,-15.09375 -0.29167,-5.39583 -0.875,-13.19792 -1.75,-23.40625 H 343.5 c 2.04167,7 3.42708,13.27083 4.15625,18.8125 0.72917,5.54167 1.09375,12.10417 1.09375,19.6875 0,7.54981 -0.3632,14.30193 -1.08594,20.26172 a 148.39968,127.82193 29.603704 0 1 25.67969,4.56836 C 374.42284,215.85669 375,207.58889 375,199.125 c 0,-24.5 -4.52083,-47.32292 -13.5625,-68.46875 C 352.39583,109.51042 340,91.062513 324.25,75.3125 308.5,59.562501 289.97917,47.239583 268.6875,38.34375 247.39583,29.447936 224.5,25 200,25 Z m 0,26.25 c 10.20833,11.083333 19.10417,23.843751 26.6875,38.28125 7.58333,14.43751 12.97917,29.38542 16.1875,44.84375 H 158 C 163.83333,112.5 169.95833,95.145847 176.375,82.3125 182.79167,69.479167 190.66667,59.125 200,51.25 Z m 37.1875,4.375 c 21.875,5.541667 41.19792,15.020834 57.96875,28.4375 C 311.92708,97.47918 325.125,114.25 334.75,134.375 h -65.625 c -3.79167,-16.625 -8.23958,-31.20832 -13.34375,-43.75 -5.10417,-12.541664 -11.30208,-24.208331 -18.59375,-35 z m -74.8125,0.4375 c -7.58333,11.666669 -13.85417,23.697919 -18.8125,36.09375 -4.95833,12.39585 -9.04167,26.46875 -12.25,42.21875 H 65.25 C 75.458334,113.95833 88.729167,97.187513 105.0625,84.0625 121.39583,70.937501 140.5,61.604167 162.375,56.0625 Z M 56.5,160.625 h 70 c -0.875,7 -1.45833,13.34375 -1.75,19.03125 -0.29167,5.6875 -0.4375,12.17708 -0.4375,19.46875 0,6.125 0.0729,12.32292 0.21875,18.59375 0.14583,6.27083 0.65625,13.34375 1.53125,21.21875 H 56.5 c -2.041667,-7 -3.427083,-13.48958 -4.15625,-19.46875 C 51.614583,213.48958 51.25,206.70833 51.25,199.125 c 0,-7.58333 0.364583,-14.14583 1.09375,-19.6875 0.729167,-5.54167 2.114583,-11.8125 4.15625,-18.8125 z m 96.6875,0 H 247.25 c 1.16667,9.04167 1.89583,16.26042 2.1875,21.65625 0.29167,5.39583 0.4375,11.01042 0.4375,16.84375 0,6.125 -0.14583,12.03125 -0.4375,17.71875 -0.29167,5.6875 -1.02083,13.05208 -2.1875,22.09375 h -94.0625 c -1.16667,-9.04167 -1.89583,-16.40625 -2.1875,-22.09375 -0.29167,-5.6875 -0.4375,-11.59375 -0.4375,-17.71875 0,-5.83333 0.14583,-11.44792 0.4375,-16.84375 0.29167,-5.39583 1.02083,-12.61458 2.1875,-21.65625 z M 65.25,265.1875 h 65.625 c 3.5,16.04167 7.875,30.47917 13.125,43.3125 5.25,12.83333 11.52083,24.79167 18.8125,35.875 C 138.02083,335.91667 118.33333,325.78125 103.75,313.96875 89.166667,302.15625 76.333334,285.89583 65.25,265.1875 Z" /><path
         d="m 360.02036,487 51.18778,-150 h 23.19005 L 487,487 H 462.39593 L 450.8009,447.625 H 396.50226 L 383.21041,487 Z m 42.70362,-61.25 h 40.15837 l -19.79638,-60.625 h -0.56561 z m -131.78733,23.75 -15.5543,-17.1875 57.69231,-63.75 Q 302.32805,354.8125 293.98529,340.90625 285.64253,327 279.42081,312 h 24.60408 q 4.80769,10.3125 10.6052,19.53125 5.79751,9.21875 13.15045,18.90625 Q 340.50679,335.75 348.99095,319.96875 357.47511,304.1875 363.41403,287 H 237 v -25 h 79.18552 v -25 h 22.62443 v 25 h 79.18553 v 25 h -31.95702 q -6.22172,21.5625 -16.54412,42.34375 -10.32239,20.78125 -25.31108,39.53125 l 27.71493,30.9375 -8.48416,25.3125 L 327.49774,387 Z"
         id="path5047"
         style="fill:#00b73d;fill-opacity:1;stroke-width:5.94565" /></g></g></svg>
